<?xml version="1.0" standalone="no"?><!DOCTYPE svg PUBLIC "-//W3C//DTD SVG 1.1//EN" "http://www.w3.org/Graphics/SVG/1.1/DTD/svg11.dtd"><svg t="1578902221770" class="icon" viewBox="0 0 1024 1024" version="1.1" xmlns="http://www.w3.org/2000/svg" p-id="3962" xmlns:xlink="http://www.w3.org/1999/xlink" width="200" height="200"><defs><style type="text/css"></style></defs><path d="M335.018667 768h353.962666l14.976-8.661333A383.829333 383.829333 0 0 0 893.653333 469.333333H130.346667a383.829333 383.829333 0 0 0 189.696 290.005334l14.976 8.661333zM341.333333 810.666667v85.333333h341.333334v-85.333333H341.333333z m533.504-384H938.666667a426.496 426.496 0 0 1-213.333334 369.578666V938.666667H298.666667v-142.421334A426.496 426.496 0 0 1 85.333333 426.666667h66.304c10.453333-65.237333 66.517333-131.328 128.597334-153.088A236.970667 236.970667 0 0 1 715.605333 200.96c109.781333 18.901333 154.666667 104.362667 159.232 225.706667z m-42.666666 0c-4.352-105.642667-42.154667-173.354667-132.736-185.002667l-10.88-1.408-5.205334-9.685333A194.261333 194.261333 0 0 0 320 293.376l-2.133333 14.293333-14.037334 3.328C255.36 322.645333 206.506667 375.936 195.072 426.666667h637.056z" p-id="3963"></path></svg>